<svg width="24px" height="27px" viewBox="0 0 24 27" version="1.1" xmlns="http://www.w3.org/2000/svg" xmlns:xlink="http://www.w3.org/1999/xlink">
    <title>Projektikortin ikoni</title>
    <g id="Projektikortin-ikoni" stroke="none" stroke-width="1" fill="none" fill-rule="evenodd">
        <g id="passport-solid" fill="#0064AF" fill-rule="nonzero">
            <path d="M6.94392857,9.28125 L9.03803571,9.28125 C9.11785714,7.85583984 9.38839286,6.57333984 9.79928571,5.56822266 C8.31482143,6.26642578 7.22678571,7.63488281 6.94392857,9.28125 Z M6.94392857,10.96875 C7.22732143,12.6151172 8.31482143,13.9835742 9.79928571,14.6817773 C9.38785714,13.6766602 9.11785714,12.3941602 9.03803571,10.96875 L6.94392857,10.96875 L6.94392857,10.96875 Z M12,15.118418 C12.4119643,14.7255469 13.1126786,13.3033008 13.2551786,10.96875 L10.7442857,10.96875 C10.8873214,13.3027734 11.5880357,14.7255469 12,15.118418 Z M10.7448214,9.28125 L13.2557143,9.28125 C13.1132143,6.94722656 12.4125,5.52445313 12.0005357,5.13158203 C11.5880357,5.52445313 10.8873214,6.94722656 10.7448214,9.28125 Z M14.2007143,14.6817773 C15.6851786,13.9835742 16.7732143,12.6151172 17.0560714,10.96875 L14.9619643,10.96875 C14.8821429,12.3941602 14.6121429,13.6766602 14.2007143,14.6817773 Z M22.2857143,0 L3.42857143,0 C1.53482143,0 0,1.51083984 0,3.375 L0,23.625 C0,25.4891602 1.53482143,27 3.42857143,27 L22.2857143,27 C23.2323214,27 24,26.2443164 24,25.3125 L24,1.6875 C24,0.755683594 23.2323214,0 22.2857143,0 Z M18,21.9375 L6,21.9375 C5.52857143,21.9375 5.14285714,21.5578125 5.14285714,21.09375 C5.14285714,20.6296875 5.52857143,20.25 6,20.25 L18,20.25 C18.4714286,20.25 18.8571429,20.6296875 18.8571429,21.09375 C18.8571429,21.5578125 18.4714286,21.9375 18,21.9375 Z M12,16.875 C8.21303571,16.875 5.14285714,13.852793 5.14285714,10.125 C5.14285714,6.39720703 8.21303571,3.375 12,3.375 C15.7869643,3.375 18.8571429,6.39720703 18.8571429,10.125 C18.8571429,13.852793 15.7869643,16.875 12,16.875 Z M14.2007143,5.56822266 C14.6121429,6.57333984 14.8821429,7.85583984 14.9619643,9.28125 L17.0560714,9.28125 C16.7732143,7.63488281 15.6851786,6.26642578 14.2007143,5.56822266 Z" id="Shape"></path>
        </g>
    </g>
</svg>