<?xml version="1.0" encoding="UTF-8"?>
<svg width="43px" height="41px" viewBox="0 0 43 41" version="1.1" xmlns="http://www.w3.org/2000/svg" xmlns:xlink="http://www.w3.org/1999/xlink">
    <title>Kysymys-ikoni</title>
    <g id="Kysymys-ikoni" stroke="none" stroke-width="1" fill="none" fill-rule="evenodd">
        <g id="Group-2" transform="translate(0.000000, 1.000000)" fill="#FFFFFF" fill-rule="nonzero">
            <g id="circle-question-solid" transform="translate(27.000000, 0.000000)">
                <path d="M7.5,0 C3.35742188,0 0,3.35742188 0,7.5 C0,11.6425781 3.35742188,15 7.5,15 C11.6425781,15 15,11.6425781 15,7.5 C15,3.35742188 11.6425781,0 7.5,0 Z M7.5,11.71875 C6.97265625,11.71875 6.5625,11.3085938 6.5625,10.78125 C6.5625,10.2539062 6.94628906,9.84375 7.5,9.84375 C8.00097656,9.84375 8.4375,10.2539062 8.4375,10.78125 C8.4375,11.3085938 8.00097656,11.71875 7.5,11.71875 Z M9.52441406,7.55859375 L8.203125,8.37890625 L8.203125,8.4375 C8.203125,8.81835938 7.88085938,9.140625 7.5,9.140625 C7.11914062,9.140625 6.796875,8.81835938 6.796875,8.4375 L6.796875,7.96875 C6.796875,7.734375 6.9140625,7.5 7.1484375,7.35351562 L8.81835938,6.35742188 C9.0234375,6.24023438 9.140625,6.03515625 9.140625,5.80078125 C9.140625,5.44921875 8.82128906,5.15625 8.46972656,5.15625 L6.97265625,5.15625 C6.59472656,5.15625 6.328125,5.44921875 6.328125,5.80078125 C6.328125,6.18164062 6.00585938,6.50390625 5.625,6.50390625 C5.24414062,6.50390625 4.921875,6.18164062 4.921875,5.80078125 C4.921875,4.65820312 5.83007812,3.75 6.94628906,3.75 L8.44335938,3.75 C9.63867188,3.75 10.546875,4.65820312 10.546875,5.80078125 C10.546875,6.50390625 10.1660156,7.17773438 9.52441406,7.55859375 Z" id="Shape"></path>
            </g>
            <g id="comments-solid" transform="translate(0.000000, 8.000000)">
                <path d="M28.1029412,10.754717 C28.1029412,4.81273585 21.813557,0 14.0514706,0 C6.28938419,0 0,4.81273585 0,10.754717 C0,13.0602594 0.952527574,15.184316 2.56709559,16.9386792 C1.66185662,18.9686321 0.168887868,20.5818396 0.148621324,20.6020047 C0,20.7566038 -0.0405330882,20.9851415 0.0472886029,21.1867925 C0.135110294,21.3884434 0.324264706,21.509434 0.540441176,21.509434 C3.01295956,21.509434 5.05988051,20.6826651 6.53258272,19.8290094 C8.70785846,20.884316 11.2817096,21.509434 14.0514706,21.509434 C21.813557,21.509434 28.1029412,16.6966981 28.1029412,10.754717 Z M36.3827429,25.3776341 C38.0288599,23.6102589 39,21.4554206 39,19.1238449 C39,14.5762525 35.3151776,10.6812294 30.0944385,9.05660377 C30.1564261,9.50524517 30.1839762,9.96068417 30.1839762,10.4229208 C30.1839762,17.6215759 22.7661187,23.4743069 13.6539316,23.4743069 C12.9100796,23.4743069 12.1868902,23.4199261 11.4705882,23.3451526 C13.6401566,27.2537708 18.7369203,30 24.6739614,30 C27.497844,30 30.1219886,29.3746211 32.3397695,28.3006008 C33.8412486,29.1638956 35.9281667,30 38.4489985,30 C38.6693991,30 38.8691371,29.8708457 38.9517874,29.6737153 C39.0413251,29.476585 39,29.2454667 38.8484746,29.0823244 C38.827812,29.0619316 37.3056704,27.4373059 36.3827429,25.3776341 Z" id="Shape"></path>
            </g>
        </g>
    </g>
</svg>