<?xml version="1.0" encoding="UTF-8"?>
<svg width="30px" height="22px" viewBox="0 0 24 33" version="1.1" xmlns="http://www.w3.org/2000/svg" xmlns:xlink="http://www.w3.org/1999/xlink">
    <title>Icon/Paperclip</title>
    <g id="Symbols" stroke="none" stroke-width="1" fill="none" fill-rule="evenodd">
        <g id="Icon/Paperclip" fill="#0064AF" fill-rule="nonzero">
            <path d="M17.0826008,6.27347941 C15.640045,4.80455853 13.2988478,4.80455853 11.8562919,6.27347941 L0.978001868,17.3505877 C-1.51099819,19.8850783 -1.51099819,23.9908325 0.978001868,26.5253231 C3.46700192,29.0598136 7.49906377,29.0598136 9.98806383,26.5253231 L18.9744773,17.3746684 C19.6188978,16.7184701 20.6712541,16.7184701 21.3156745,17.3746684 C21.960095,18.0308667 21.960095,19.1024565 21.3156745,19.7586548 L12.329261,28.9093094 C8.54550798,32.7622167 2.42055772,32.7622167 -1.36319534,28.9093094 C-5.14694839,25.0564022 -5.14694839,18.8195086 -1.36319534,14.9666014 L9.5150947,3.88949306 C12.2524036,1.10215548 16.6864892,1.10215548 19.423798,3.88949306 C22.1611069,6.67683064 22.1611069,11.1919563 19.423798,13.9792939 L9.01847711,24.5747888 C7.32761246,26.2965567 4.5843915,26.2965567 2.89352685,24.5747888 C1.20266221,22.8530209 1.20266221,20.0596631 2.89352685,18.3378952 L11.4069712,9.66885392 C12.0513917,9.01265565 13.103748,9.01265565 13.7481684,9.66885392 C14.3925889,10.3250522 14.3925889,11.396642 13.7481684,12.0528403 L5.23472406,20.7218816 C4.83861241,21.1252328 4.83861241,21.7874512 5.23472406,22.1908024 C5.6308357,22.5941537 6.28116826,22.5941537 6.67727991,22.1908024 L17.0826008,11.5953075 C18.5251567,10.1263867 18.5251567,7.7424003 17.0826008,6.27347941 Z" id="Path" transform="translate(8.798990, 16.798990) rotate(45.000000) translate(-8.798990, -16.798990) "></path>
        </g>
    </g>
</svg>
